<?xml version="1.0" encoding="iso-8859-1"?>
<!-- Generator: Adobe Illustrator 19.0.0, SVG Export Plug-In . SVG Version: 6.00 Build 0)  -->
<svg version="1.1" id="Capa_1" xmlns="http://www.w3.org/2000/svg" xmlns:xlink="http://www.w3.org/1999/xlink" x="0px" y="0px"
	 viewBox="0 0 512 512" style="enable-background:new 0 0 512 512;" xml:space="preserve">
<circle style="fill:#F44336;" cx="256" cy="256" r="96"/>
<path d="M256,352c-53.019,0-96-42.981-96-96s42.981-96,96-96s96,42.981,96,96S309.019,352,256,352z M256,192
	c-35.346,0-64,28.654-64,64s28.654,64,64,64s64-28.654,64-64S291.346,192,256,192z"/>
<path d="M16,192c-8.837,0-16-7.163-16-16V16C0,7.163,7.163,0,16,0h160c8.837,0,16,7.163,16,16s-7.163,16-16,16H32v144
	C32,184.837,24.837,192,16,192z"/>
<path d="M496,192c-8.837,0-16-7.163-16-16V32H336c-8.837,0-16-7.163-16-16s7.163-16,16-16h160c8.837,0,16,7.163,16,16v160
	C512,184.837,504.837,192,496,192z"/>
<path d="M176,512H16c-8.837,0-16-7.163-16-16V336c0-8.837,7.163-16,16-16s16,7.163,16,16v144h144c8.837,0,16,7.163,16,16
	S184.837,512,176,512z"/>
<path d="M496,512H336c-8.837,0-16-7.163-16-16s7.163-16,16-16h144V336c0-8.837,7.163-16,16-16s16,7.163,16,16v160
	C512,504.837,504.837,512,496,512z"/>
<g>
</g>
<g>
</g>
<g>
</g>
<g>
</g>
<g>
</g>
<g>
</g>
<g>
</g>
<g>
</g>
<g>
</g>
<g>
</g>
<g>
</g>
<g>
</g>
<g>
</g>
<g>
</g>
<g>
</g>
</svg>
